<?xml version="1.0" encoding="UTF-8" standalone="no"?>
<!DOCTYPE svg PUBLIC "-//W3C//DTD SVG 1.1//EN"
 "http://www.w3.org/Graphics/SVG/1.1/DTD/svg11.dtd">
<!-- Generated by graphviz version 2.43.0 (0)
 -->
<!-- Title: G Pages: 1 -->
<svg width="564pt" height="332pt"
 viewBox="0.00 0.00 563.96 332.00" xmlns="http://www.w3.org/2000/svg" xmlns:xlink="http://www.w3.org/1999/xlink">
<g id="graph0" class="graph" transform="scale(1 1) rotate(0) translate(4 328)">
<title>G</title>
<polygon fill="white" stroke="transparent" points="-4,4 -4,-328 559.96,-328 559.96,4 -4,4"/>
<g id="clust1" class="cluster">
<title>cluster_G</title>
<path fill="#808080" fill-opacity="0.094118" stroke="black" d="M20,-8C20,-8 535.96,-8 535.96,-8 541.96,-8 547.96,-14 547.96,-20 547.96,-20 547.96,-304 547.96,-304 547.96,-310 541.96,-316 535.96,-316 535.96,-316 20,-316 20,-316 14,-316 8,-310 8,-304 8,-304 8,-20 8,-20 8,-14 14,-8 20,-8"/>
</g>
<!-- cache -->
<g id="node1" class="node">
<title>cache</title>
<ellipse fill="#fecccc" fill-opacity="0.698039" stroke="black" cx="181.34" cy="-34" rx="37.09" ry="18"/>
<text text-anchor="middle" x="181.34" y="-30.3" font-family="Times,serif" font-size="14.00" fill="#000000">cache</text>
</g>
<!-- kodi -->
<g id="node4" class="node">
<title>kodi</title>
<ellipse fill="#fbfecc" fill-opacity="0.698039" stroke="black" cx="320.03" cy="-88" rx="30.59" ry="18"/>
<text text-anchor="middle" x="320.03" y="-84.3" font-family="Times,serif" font-size="14.00" fill="#000000">kodi</text>
</g>
<!-- cache&#45;&gt;kodi -->
<g id="edge2" class="edge">
<title>cache&#45;&gt;kodi</title>
<path fill="none" stroke="#000000" d="M210.66,-45.19C232.15,-53.68 261.78,-65.38 284.63,-74.41"/>
<polygon fill="#000000" stroke="#000000" points="283.37,-77.68 293.96,-78.1 285.95,-71.17 283.37,-77.68"/>
</g>
<!-- xbmcgui -->
<g id="node12" class="node">
<title>xbmcgui</title>
<ellipse fill="transparent" stroke="black" cx="474.97" cy="-34" rx="50.09" ry="18"/>
<text text-anchor="middle" x="474.97" y="-30.3" font-family="Times,serif" font-size="14.00" fill="#000000">xbmcgui</text>
</g>
<!-- cache&#45;&gt;xbmcgui -->
<g id="edge1" class="edge">
<title>cache&#45;&gt;xbmcgui</title>
<path fill="none" stroke="#000000" d="M218.39,-34C267.41,-34 355.72,-34 414.6,-34"/>
<polygon fill="#000000" stroke="#000000" points="414.88,-37.5 424.88,-34 414.88,-30.5 414.88,-37.5"/>
</g>
<!-- gazpacho -->
<g id="node2" class="node">
<title>gazpacho</title>
<ellipse fill="transparent" stroke="black" cx="320.03" cy="-236" rx="53.89" ry="18"/>
<text text-anchor="middle" x="320.03" y="-232.3" font-family="Times,serif" font-size="14.00" fill="#000000">gazpacho</text>
</g>
<!-- kaltura -->
<g id="node3" class="node">
<title>kaltura</title>
<ellipse fill="#fef0cc" fill-opacity="0.698039" stroke="black" cx="181.34" cy="-182" rx="44.39" ry="18"/>
<text text-anchor="middle" x="181.34" y="-178.3" font-family="Times,serif" font-size="14.00" fill="#000000">kaltura</text>
</g>
<!-- misc -->
<g id="node5" class="node">
<title>misc</title>
<ellipse fill="#d8fecc" fill-opacity="0.698039" stroke="black" cx="320.03" cy="-182" rx="32.49" ry="18"/>
<text text-anchor="middle" x="320.03" y="-178.3" font-family="Times,serif" font-size="14.00" fill="#000000">misc</text>
</g>
<!-- kaltura&#45;&gt;misc -->
<g id="edge3" class="edge">
<title>kaltura&#45;&gt;misc</title>
<path fill="none" stroke="#000000" d="M225.59,-182C242.01,-182 260.68,-182 277,-182"/>
<polygon fill="#000000" stroke="#000000" points="277.33,-185.5 287.33,-182 277.33,-178.5 277.33,-185.5"/>
</g>
<!-- xbmc -->
<g id="node10" class="node">
<title>xbmc</title>
<ellipse fill="transparent" stroke="black" cx="474.97" cy="-250" rx="36" ry="18"/>
<text text-anchor="middle" x="474.97" y="-246.3" font-family="Times,serif" font-size="14.00" fill="#000000">xbmc</text>
</g>
<!-- kodi&#45;&gt;xbmc -->
<g id="edge5" class="edge">
<title>kodi&#45;&gt;xbmc</title>
<path fill="none" stroke="#000000" d="M334.95,-103.9C346.17,-117.1 361.99,-136.62 373.97,-155 392.65,-183.64 384.76,-199.9 409.97,-223 416.69,-229.15 425.02,-234.03 433.42,-237.84"/>
<polygon fill="#000000" stroke="#000000" points="432.28,-241.15 442.86,-241.71 434.93,-234.68 432.28,-241.15"/>
</g>
<!-- xbmcaddon -->
<g id="node11" class="node">
<title>xbmcaddon</title>
<ellipse fill="transparent" stroke="black" cx="474.97" cy="-88" rx="63.89" ry="18"/>
<text text-anchor="middle" x="474.97" y="-84.3" font-family="Times,serif" font-size="14.00" fill="#000000">xbmcaddon</text>
</g>
<!-- kodi&#45;&gt;xbmcaddon -->
<g id="edge4" class="edge">
<title>kodi&#45;&gt;xbmcaddon</title>
<path fill="none" stroke="#000000" d="M350.88,-88C365.2,-88 383.04,-88 400.65,-88"/>
<polygon fill="#000000" stroke="#000000" points="400.97,-91.5 410.97,-88 400.97,-84.5 400.97,-91.5"/>
</g>
<!-- kodi&#45;&gt;xbmcgui -->
<g id="edge8" class="edge">
<title>kodi&#45;&gt;xbmcgui</title>
<path fill="none" stroke="#000000" d="M346.63,-78.96C369.05,-71.05 402.14,-59.36 428.97,-49.89"/>
<polygon fill="#000000" stroke="#000000" points="430.27,-53.14 438.54,-46.51 427.94,-46.54 430.27,-53.14"/>
</g>
<!-- xbmcplugin -->
<g id="node13" class="node">
<title>xbmcplugin</title>
<ellipse fill="transparent" stroke="black" cx="474.97" cy="-142" rx="64.99" ry="18"/>
<text text-anchor="middle" x="474.97" y="-138.3" font-family="Times,serif" font-size="14.00" fill="#000000">xbmcplugin</text>
</g>
<!-- kodi&#45;&gt;xbmcplugin -->
<g id="edge7" class="edge">
<title>kodi&#45;&gt;xbmcplugin</title>
<path fill="none" stroke="#000000" d="M346.63,-97.04C367.82,-104.52 398.54,-115.37 424.5,-124.53"/>
<polygon fill="#000000" stroke="#000000" points="423.59,-127.92 434.19,-127.95 425.92,-121.32 423.59,-127.92"/>
</g>
<!-- xbmcvfs -->
<g id="node14" class="node">
<title>xbmcvfs</title>
<ellipse fill="transparent" stroke="black" cx="474.97" cy="-196" rx="49.29" ry="18"/>
<text text-anchor="middle" x="474.97" y="-192.3" font-family="Times,serif" font-size="14.00" fill="#000000">xbmcvfs</text>
</g>
<!-- kodi&#45;&gt;xbmcvfs -->
<g id="edge6" class="edge">
<title>kodi&#45;&gt;xbmcvfs</title>
<path fill="none" stroke="#000000" d="M335.15,-103.75C351.69,-121.46 380.59,-150.21 409.97,-169 416.05,-172.89 422.78,-176.43 429.53,-179.58"/>
<polygon fill="#000000" stroke="#000000" points="428.12,-182.78 438.68,-183.63 430.95,-176.38 428.12,-182.78"/>
</g>
<!-- network -->
<g id="node6" class="node">
<title>network</title>
<ellipse fill="#ccfed2" fill-opacity="0.698039" stroke="black" cx="181.34" cy="-290" rx="48.99" ry="18"/>
<text text-anchor="middle" x="181.34" y="-286.3" font-family="Times,serif" font-size="14.00" fill="#000000">network</text>
</g>
<!-- requests -->
<g id="node7" class="node">
<title>requests</title>
<ellipse fill="transparent" stroke="black" cx="320.03" cy="-290" rx="51.19" ry="18"/>
<text text-anchor="middle" x="320.03" y="-286.3" font-family="Times,serif" font-size="14.00" fill="#000000">requests</text>
</g>
<!-- network&#45;&gt;requests -->
<g id="edge9" class="edge">
<title>network&#45;&gt;requests</title>
<path fill="none" stroke="#000000" d="M230.15,-290C239.19,-290 248.77,-290 258.15,-290"/>
<polygon fill="#000000" stroke="#000000" points="258.23,-293.5 268.23,-290 258.23,-286.5 258.23,-293.5"/>
</g>
<!-- router -->
<g id="node8" class="node">
<title>router</title>
<ellipse fill="#ccfef5" fill-opacity="0.698039" stroke="black" cx="56.3" cy="-145" rx="40.09" ry="18"/>
<text text-anchor="middle" x="56.3" y="-141.3" font-family="Times,serif" font-size="14.00" fill="#000000">router</text>
</g>
<!-- router&#45;&gt;cache -->
<g id="edge14" class="edge">
<title>router&#45;&gt;cache</title>
<path fill="none" stroke="#000000" d="M70.04,-127.72C83.99,-109.59 107.72,-81.01 132.59,-61 136.66,-57.73 141.18,-54.62 145.77,-51.75"/>
<polygon fill="#000000" stroke="#000000" points="147.73,-54.65 154.57,-46.56 144.18,-48.62 147.73,-54.65"/>
</g>
<!-- router&#45;&gt;kaltura -->
<g id="edge13" class="edge">
<title>router&#45;&gt;kaltura</title>
<path fill="none" stroke="#000000" d="M90.27,-154.92C104.17,-159.09 120.56,-164.02 135.53,-168.53"/>
<polygon fill="#000000" stroke="#000000" points="134.53,-171.88 145.12,-171.41 136.55,-165.18 134.53,-171.88"/>
</g>
<!-- router&#45;&gt;kodi -->
<g id="edge16" class="edge">
<title>router&#45;&gt;kodi</title>
<path fill="none" stroke="#000000" d="M94.98,-139.82C130.17,-134.66 184.02,-125.95 230.08,-115 247.9,-110.77 267.39,-104.98 283.58,-99.85"/>
<polygon fill="#000000" stroke="#000000" points="284.73,-103.16 293.18,-96.77 282.59,-96.49 284.73,-103.16"/>
</g>
<!-- router&#45;&gt;misc -->
<g id="edge10" class="edge">
<title>router&#45;&gt;misc</title>
<path fill="none" stroke="#000000" d="M96.72,-144.64C131.94,-144.94 184.82,-146.94 230.08,-155 247.85,-158.16 267.06,-163.71 283.06,-168.96"/>
<polygon fill="#000000" stroke="#000000" points="281.98,-172.29 292.58,-172.17 284.22,-165.66 281.98,-172.29"/>
</g>
<!-- router&#45;&gt;network -->
<g id="edge11" class="edge">
<title>router&#45;&gt;network</title>
<path fill="none" stroke="#000000" d="M65.26,-162.9C77.06,-187.82 101.2,-233.24 132.59,-263 135.31,-265.58 138.32,-268 141.46,-270.25"/>
<polygon fill="#000000" stroke="#000000" points="139.72,-273.29 150.01,-275.82 143.54,-267.43 139.72,-273.29"/>
</g>
<!-- utils -->
<g id="node9" class="node">
<title>utils</title>
<ellipse fill="#ccf5fe" fill-opacity="0.698039" stroke="black" cx="181.34" cy="-88" rx="31.4" ry="18"/>
<text text-anchor="middle" x="181.34" y="-84.3" font-family="Times,serif" font-size="14.00" fill="#000000">utils</text>
</g>
<!-- router&#45;&gt;utils -->
<g id="edge15" class="edge">
<title>router&#45;&gt;utils</title>
<path fill="none" stroke="#000000" d="M84.91,-132.21C103.42,-123.63 127.89,-112.3 147.41,-103.25"/>
<polygon fill="#000000" stroke="#000000" points="148.95,-106.4 156.55,-99.02 146.01,-100.05 148.95,-106.4"/>
</g>
<!-- yle -->
<g id="node15" class="node">
<title>yle</title>
<ellipse fill="#feccef" fill-opacity="0.698039" stroke="black" cx="181.34" cy="-236" rx="27" ry="18"/>
<text text-anchor="middle" x="181.34" y="-232.3" font-family="Times,serif" font-size="14.00" fill="#000000">yle</text>
</g>
<!-- router&#45;&gt;yle -->
<g id="edge12" class="edge">
<title>router&#45;&gt;yle</title>
<path fill="none" stroke="#000000" d="M74.48,-161.25C89.27,-174.83 111.49,-194.27 132.59,-209 138.13,-212.86 144.26,-216.66 150.23,-220.12"/>
<polygon fill="#000000" stroke="#000000" points="148.94,-223.42 159.37,-225.27 152.37,-217.31 148.94,-223.42"/>
</g>
<!-- utils&#45;&gt;kodi -->
<g id="edge17" class="edge">
<title>utils&#45;&gt;kodi</title>
<path fill="none" stroke="#000000" d="M212.67,-88C232.28,-88 257.99,-88 279.23,-88"/>
<polygon fill="#000000" stroke="#000000" points="279.25,-91.5 289.25,-88 279.25,-84.5 279.25,-91.5"/>
</g>
<!-- yle&#45;&gt;gazpacho -->
<g id="edge19" class="edge">
<title>yle&#45;&gt;gazpacho</title>
<path fill="none" stroke="#000000" d="M208.37,-236C221.84,-236 238.93,-236 255.62,-236"/>
<polygon fill="#000000" stroke="#000000" points="255.93,-239.5 265.93,-236 255.93,-232.5 255.93,-239.5"/>
</g>
<!-- yle&#45;&gt;misc -->
<g id="edge18" class="edge">
<title>yle&#45;&gt;misc</title>
<path fill="none" stroke="#000000" d="M204.91,-227.08C226.33,-218.62 258.86,-205.77 283.71,-195.95"/>
<polygon fill="#000000" stroke="#000000" points="285.14,-199.15 293.16,-192.22 282.57,-192.64 285.14,-199.15"/>
</g>
</g>
</svg>
